<svg xmlns="http://www.w3.org/2000/svg" xmlns:xlink="http://www.w3.org/1999/xlink" version="1.1" x="0px" y="0px" viewBox="0 0 100 125"><path d="M712,381 c88,11,243,123,243,313 c0,134,-78,196,-169,196 c-102,0,-155,-79,-155,-173 c0,-124,93,-155,151,-160 c4,-33,-38,-91,-89,-124 Z M326,381 c88,11,243,123,243,313 c0,134,-78,196,-169,196 c-102,0,-155,-79,-155,-173 c0,-124,93,-155,151,-160 c4,-33,-38,-91,-89,-124 Z M0,-50 l0,1000 c0,97,53,150,150,150 l900,0 c97,0,150,-53,150,-150 l0,-600 c0,-97,-53,-150,-150,-150 l-800,0 Z M0,-50 " fill="#000000" stroke="none" stroke-dasharray="none" stroke-linecap="inherit" stroke-linejoin="inherit" stroke-width="1" transform="matrix(0.0583333333333,0.0,0.0,-0.0583333333333,15.0,85.0)"/><text x="0" y="115" fill="#000000" font-size="5px" font-weight="bold" font-family="'Helvetica Neue', Helvetica, Arial-Unicode, Arial, Sans-serif">Created by Thomas Helbig</text><text x="0" y="120" fill="#000000" font-size="5px" font-weight="bold" font-family="'Helvetica Neue', Helvetica, Arial-Unicode, Arial, Sans-serif">from the Noun Project</text></svg>